<svg xmlns="http://www.w3.org/2000/svg" viewBox="0 0 32 32">
  <circle cx="16" cy="16" r="15" fill="#1a1a2e"/>
  <path fill="#58a6ff" d="M16 4c.6 0 1.1.4 1.2 1l.4 2.1c1.1.3 2.1.8 3 1.4l1.8-1.1c.5-.3 1.1-.2 1.5.2l1.1 1.1c.4.4.5 1 .2 1.5l-1.1 1.8c.6.9 1.1 1.9 1.4 3l2.1.4c.6.1 1 .6 1 1.2v1.6c0 .6-.4 1.1-1 1.2l-2.1.4c-.3 1.1-.8 2.1-1.4 3l1.1 1.8c.3.5.2 1.1-.2 1.5l-1.1 1.1c-.4.4-1 .5-1.5.2l-1.8-1.1c-.9.6-1.9 1.1-3 1.4l-.4 2.1c-.1.6-.6 1-1.2 1h-1.6c-.6 0-1.1-.4-1.2-1l-.4-2.1c-1.1-.3-2.1-.8-3-1.4l-1.8 1.1c-.5.3-1.1.2-1.5-.2l-1.1-1.1c-.4-.4-.5-1-.2-1.5l1.1-1.8c-.6-.9-1.1-1.9-1.4-3l-2.1-.4c-.6-.1-1-.6-1-1.2v-1.6c0-.6.4-1.1 1-1.2l2.1-.4c.3-1.1.8-2.1 1.4-3L6.4 9.2c-.3-.5-.2-1.1.2-1.5l1.1-1.1c.4-.4 1-.5 1.5-.2l1.8 1.1c.9-.6 1.9-1.1 3-1.4L14.4 5c.1-.6.6-1 1.2-1h.4zm0 7a5 5 0 1 0 0 10 5 5 0 0 0 0-10z"/>
</svg>
